<svg viewBox="0 0 700 400" xmlns="http://www.w3.org/2000/svg" role="img">

  <defs>
    <linearGradient id="skyt" x1="0" y1="0" x2="0" y2="1">
      <stop offset="0%" stop-color="#153B37"/>
      <stop offset="100%" stop-color="#0E2C2A"/>
    </linearGradient>
    <pattern id="gridt" width="40" height="40" patternUnits="userSpaceOnUse">
      <path d="M40 0H0V40" fill="none" stroke="#F2E9D3" stroke-opacity="0.045" stroke-width="1"/>
    </pattern>
  </defs>
  <rect width="700" height="400" fill="url(#skyt)"/>
  <rect width="700" height="400" fill="url(#gridt)"/>
  
  <rect x="0" y="248.0" width="700" height="152.0" fill="#1D4B45" fill-opacity="0.5"/><path d="M -20 248 Q 175.0 242 350.0 248 T 720 248" fill="none" stroke="#C69A46" stroke-opacity="0.4" stroke-width="1"/><path d="M -20 262 Q 175.0 256 350.0 262 T 720 262" fill="none" stroke="#C69A46" stroke-opacity="0.36000000000000004" stroke-width="1"/><path d="M -20 276 Q 175.0 270 350.0 276 T 720 276" fill="none" stroke="#C69A46" stroke-opacity="0.32" stroke-width="1"/><path d="M -20 290 Q 175.0 284 350.0 290 T 720 290" fill="none" stroke="#C69A46" stroke-opacity="0.28" stroke-width="1"/><path d="M -20 304 Q 175.0 298 350.0 304 T 720 304" fill="none" stroke="#C69A46" stroke-opacity="0.24000000000000002" stroke-width="1"/><path d="M -20 318 Q 175.0 312 350.0 318 T 720 318" fill="none" stroke="#C69A46" stroke-opacity="0.2" stroke-width="1"/><path d="M -20 332 Q 175.0 326 350.0 332 T 720 332" fill="none" stroke="#C69A46" stroke-opacity="0.16000000000000003" stroke-width="1"/><path d="M -20 346 Q 175.0 340 350.0 346 T 720 346" fill="none" stroke="#C69A46" stroke-opacity="0.12" stroke-width="1"/><path d="M -20 360 Q 175.0 354 350.0 360 T 720 360" fill="none" stroke="#C69A46" stroke-opacity="0.08000000000000002" stroke-width="1"/><path d="M -20 374 Q 175.0 368 350.0 374 T 720 374" fill="none" stroke="#C69A46" stroke-opacity="0.05" stroke-width="1"/><path d="M -20 388 Q 175.0 382 350.0 388 T 720 388" fill="none" stroke="#C69A46" stroke-opacity="0.05" stroke-width="1"/><path d="M 165.0 340.0 L 210.0 306.0 L 255.0 340.0 Z" fill="#C69A46" fill-opacity="0.9"/><path d="M 178.5 314.0 L 210.0 290.2 L 241.5 314.0 Z" fill="#C69A46" fill-opacity="0.78"/><path d="M 189.75 288.0 L 210.0 272.7 L 230.25 288.0 Z" fill="#C69A46" fill-opacity="0.66"/><rect x="207.0" y="222.0" width="6" height="30" fill="#C69A46"/><path d="M -20.0 410 L -20.0 272.0 L 53.0 239.5 L 176.3 249.8 L 299.7 235.1 L 402.4 246.1 L 523.9 248.3 L 656.9 251.0 L 720.0 272.0 L 720.0 410 Z" fill="#C69A46" fill-opacity="0.6" stroke="#C69A46" stroke-opacity="0.85" stroke-width="1.2"/>
  <g transform="translate(640,60)" opacity="0.55">
    <circle r="30" fill="none" stroke="#C69A46" stroke-width="1"/>
    <circle r="24" fill="none" stroke="#C69A46" stroke-width="0.6" stroke-dasharray="2 4"/>
    <path d="M0 -30 L0 30 M-30 0 L30 0" stroke="#C69A46" stroke-width="0.6"/>
    <path d="M0 -36 L-3 -28 L3 -28 Z" fill="#C1442E"/>
  </g>
  <path d="M -20 248.0 Q 210.0 200.0 385.00000000000006 264.0 T 720 220.00000000000003" fill="none" stroke="#C69A46" stroke-width="1.2" stroke-dasharray="1 7" opacity="0.35"/>
  <rect x="0.5" y="0.5" width="699" height="399" fill="none" stroke="#C69A46" stroke-opacity="0.25" stroke-width="1"/>
</svg>