<svg viewBox="0 0 700 400" xmlns="http://www.w3.org/2000/svg" role="img">

  <defs>
    <linearGradient id="skyv" x1="0" y1="0" x2="0" y2="1">
      <stop offset="0%" stop-color="#153B37"/>
      <stop offset="100%" stop-color="#0E2C2A"/>
    </linearGradient>
    <pattern id="gridv" width="40" height="40" patternUnits="userSpaceOnUse">
      <path d="M40 0H0V40" fill="none" stroke="#F2E9D3" stroke-opacity="0.045" stroke-width="1"/>
    </pattern>
  </defs>
  <rect width="700" height="400" fill="url(#skyv)"/>
  <rect width="700" height="400" fill="url(#gridv)"/>
  
  <rect x="0" y="328.0" width="700" height="72.0" fill="#1D4B45" fill-opacity="0.5"/><path d="M -20 328 Q 175.0 322 350.0 328 T 720 328" fill="none" stroke="#C69A46" stroke-opacity="0.4" stroke-width="1"/><path d="M -20 342 Q 175.0 336 350.0 342 T 720 342" fill="none" stroke="#C69A46" stroke-opacity="0.36000000000000004" stroke-width="1"/><path d="M -20 356 Q 175.0 350 350.0 356 T 720 356" fill="none" stroke="#C69A46" stroke-opacity="0.32" stroke-width="1"/><path d="M -20 370 Q 175.0 364 350.0 370 T 720 370" fill="none" stroke="#C69A46" stroke-opacity="0.28" stroke-width="1"/><path d="M -20 384 Q 175.0 378 350.0 384 T 720 384" fill="none" stroke="#C69A46" stroke-opacity="0.24000000000000002" stroke-width="1"/><path d="M -20 398 Q 175.0 392 350.0 398 T 720 398" fill="none" stroke="#C69A46" stroke-opacity="0.2" stroke-width="1"/><rect x="30.0" y="272.6" width="39.1" height="55.4" fill="#C69A46" fill-opacity="0.5"/><rect x="75.4" y="267.7" width="40.0" height="60.3" fill="#C69A46" fill-opacity="0.5"/><rect x="122.8" y="250.0" width="32.3" height="78.0" fill="#C69A46" fill-opacity="0.5"/><rect x="171.8" y="182.5" width="23.1" height="145.5" fill="#C69A46" fill-opacity="0.5"/><rect x="204.7" y="185.5" width="31.2" height="142.5" fill="#C69A46" fill-opacity="0.5"/><rect x="250.2" y="210.1" width="38.3" height="117.9" fill="#C69A46" fill-opacity="0.5"/><rect x="295.1" y="223.1" width="37.4" height="104.9" fill="#C69A46" fill-opacity="0.5"/><rect x="342.2" y="194.5" width="22.2" height="133.5" fill="#C69A46" fill-opacity="0.5"/><rect x="377.4" y="202.9" width="38.6" height="125.1" fill="#C69A46" fill-opacity="0.5"/><rect x="433.5" y="211.2" width="30.5" height="116.8" fill="#C69A46" fill-opacity="0.5"/><rect x="477.3" y="182.8" width="23.7" height="145.2" fill="#C69A46" fill-opacity="0.5"/><rect x="510.8" y="183.0" width="35.2" height="145.0" fill="#C69A46" fill-opacity="0.5"/><rect x="559.8" y="197.2" width="21.1" height="130.8" fill="#C69A46" fill-opacity="0.5"/><rect x="594.9" y="282.6" width="22.1" height="45.4" fill="#C69A46" fill-opacity="0.5"/><rect x="629.4" y="186.2" width="18.7" height="141.8" fill="#C69A46" fill-opacity="0.5"/><rect x="660.2" y="243.0" width="29.4" height="85.0" fill="#C69A46" fill-opacity="0.5"/><polygon points="281.0,168.0 285.0,130.0 303.0,130.0 307.0,168.0" fill="#C69A46" fill-opacity="0.9"/><polygon points="283.0,206.0 287.0,168.0 301.0,168.0 305.0,206.0" fill="#C69A46" fill-opacity="0.9"/><polygon points="285.0,244.0 289.0,206.0 299.0,206.0 303.0,244.0" fill="#C69A46" fill-opacity="0.9"/><polygon points="287.0,282.0 291.0,244.0 297.0,244.0 301.0,282.0" fill="#C69A46" fill-opacity="0.9"/><polygon points="289.0,320.0 293.0,282.0 295.0,282.0 299.0,320.0" fill="#C69A46" fill-opacity="0.9"/><line x1="294.0" y1="130.0" x2="294.0" y2="104.0" stroke="#C69A46" stroke-width="2"/><polygon points="323.0,168.0 327.0,130.0 345.0,130.0 349.0,168.0" fill="#C69A46" fill-opacity="0.9"/><polygon points="325.0,206.0 329.0,168.0 343.0,168.0 347.0,206.0" fill="#C69A46" fill-opacity="0.9"/><polygon points="327.0,244.0 331.0,206.0 341.0,206.0 345.0,244.0" fill="#C69A46" fill-opacity="0.9"/><polygon points="329.0,282.0 333.0,244.0 339.0,244.0 343.0,282.0" fill="#C69A46" fill-opacity="0.9"/><polygon points="331.0,320.0 335.0,282.0 337.0,282.0 341.0,320.0" fill="#C69A46" fill-opacity="0.9"/><line x1="336.0" y1="130.0" x2="336.0" y2="104.0" stroke="#C69A46" stroke-width="2"/>
  <g transform="translate(640,60)" opacity="0.55">
    <circle r="30" fill="none" stroke="#C69A46" stroke-width="1"/>
    <circle r="24" fill="none" stroke="#C69A46" stroke-width="0.6" stroke-dasharray="2 4"/>
    <path d="M0 -30 L0 30 M-30 0 L30 0" stroke="#C69A46" stroke-width="0.6"/>
    <path d="M0 -36 L-3 -28 L3 -28 Z" fill="#C1442E"/>
  </g>
  <path d="M -20 248.0 Q 210.0 200.0 385.00000000000006 264.0 T 720 220.00000000000003" fill="none" stroke="#C69A46" stroke-width="1.2" stroke-dasharray="1 7" opacity="0.35"/>
  <rect x="0.5" y="0.5" width="699" height="399" fill="none" stroke="#C69A46" stroke-opacity="0.25" stroke-width="1"/>
</svg>