<svg viewBox="0 0 700 400" xmlns="http://www.w3.org/2000/svg" role="img">

  <defs>
    <linearGradient id="skym" x1="0" y1="0" x2="0" y2="1">
      <stop offset="0%" stop-color="#153B37"/>
      <stop offset="100%" stop-color="#0E2C2A"/>
    </linearGradient>
    <pattern id="gridm" width="40" height="40" patternUnits="userSpaceOnUse">
      <path d="M40 0H0V40" fill="none" stroke="#F2E9D3" stroke-opacity="0.045" stroke-width="1"/>
    </pattern>
  </defs>
  <rect width="700" height="400" fill="url(#skym)"/>
  <rect width="700" height="400" fill="url(#gridm)"/>
  
  <path d="M -20.0 410 L -20.0 248.0 L 50.1 186.1 L 200.5 189.9 L 343.2 223.4 L 492.5 229.1 L 652.8 195.3 L 720.0 248.0 L 720.0 410 Z" fill="#C69A46" fill-opacity="0.8"/><rect x="0" y="312.0" width="700" height="88.0" fill="#1D4B45" fill-opacity="0.5"/><path d="M -20 312 Q 175.0 306 350.0 312 T 720 312" fill="none" stroke="#C69A46" stroke-opacity="0.5" stroke-width="1"/><path d="M -20 326 Q 175.0 320 350.0 326 T 720 326" fill="none" stroke="#C69A46" stroke-opacity="0.46" stroke-width="1"/><path d="M -20 340 Q 175.0 334 350.0 340 T 720 340" fill="none" stroke="#C69A46" stroke-opacity="0.42" stroke-width="1"/><path d="M -20 354 Q 175.0 348 350.0 354 T 720 354" fill="none" stroke="#C69A46" stroke-opacity="0.38" stroke-width="1"/><path d="M -20 368 Q 175.0 362 350.0 368 T 720 368" fill="none" stroke="#C69A46" stroke-opacity="0.33999999999999997" stroke-width="1"/><path d="M -20 382 Q 175.0 376 350.0 382 T 720 382" fill="none" stroke="#C69A46" stroke-opacity="0.3" stroke-width="1"/><path d="M -20 396 Q 175.0 390 350.0 396 T 720 396" fill="none" stroke="#C69A46" stroke-opacity="0.26" stroke-width="1"/><g transform="translate(434.0,360.0) scale(1.1)" fill="#C69A46" fill-opacity="0.9">
    <path d="M -22 0 Q 0 10 22 0 L 16 6 L -16 6 Z"/>
    <line x1="0" y1="0" x2="0" y2="-26" stroke="#C69A46" stroke-width="1.6"/>
    <path d="M 0 -26 L 0 -6 L 15 -14 Z"/>
    </g>
  <g transform="translate(60,60)" opacity="0.55">
    <circle r="30" fill="none" stroke="#C69A46" stroke-width="1"/>
    <circle r="24" fill="none" stroke="#C69A46" stroke-width="0.6" stroke-dasharray="2 4"/>
    <path d="M0 -30 L0 30 M-30 0 L30 0" stroke="#C69A46" stroke-width="0.6"/>
    <path d="M0 -36 L-3 -28 L3 -28 Z" fill="#C1442E"/>
  </g>
  <path d="M -20 248.0 Q 210.0 200.0 385.00000000000006 264.0 T 720 220.00000000000003" fill="none" stroke="#C69A46" stroke-width="1.2" stroke-dasharray="1 7" opacity="0.35"/>
  <rect x="0.5" y="0.5" width="699" height="399" fill="none" stroke="#C69A46" stroke-opacity="0.25" stroke-width="1"/>
</svg>