<svg viewBox="0 0 700 400" xmlns="http://www.w3.org/2000/svg" role="img">

  <defs>
    <linearGradient id="skyw" x1="0" y1="0" x2="0" y2="1">
      <stop offset="0%" stop-color="#153B37"/>
      <stop offset="100%" stop-color="#0E2C2A"/>
    </linearGradient>
    <pattern id="gridw" width="40" height="40" patternUnits="userSpaceOnUse">
      <path d="M40 0H0V40" fill="none" stroke="#F2E9D3" stroke-opacity="0.045" stroke-width="1"/>
    </pattern>
  </defs>
  <rect width="700" height="400" fill="url(#skyw)"/>
  <rect width="700" height="400" fill="url(#gridw)"/>
  
  <rect x="0" y="320.0" width="700" height="80.0" fill="#1D4B45" fill-opacity="0.5"/><path d="M -20 320 Q 175.0 314 350.0 320 T 720 320" fill="none" stroke="#C69A46" stroke-opacity="0.4" stroke-width="1"/><path d="M -20 334 Q 175.0 328 350.0 334 T 720 334" fill="none" stroke="#C69A46" stroke-opacity="0.36000000000000004" stroke-width="1"/><path d="M -20 348 Q 175.0 342 350.0 348 T 720 348" fill="none" stroke="#C69A46" stroke-opacity="0.32" stroke-width="1"/><path d="M -20 362 Q 175.0 356 350.0 362 T 720 362" fill="none" stroke="#C69A46" stroke-opacity="0.28" stroke-width="1"/><path d="M -20 376 Q 175.0 370 350.0 376 T 720 376" fill="none" stroke="#C69A46" stroke-opacity="0.24000000000000002" stroke-width="1"/><path d="M -20 390 Q 175.0 384 350.0 390 T 720 390" fill="none" stroke="#C69A46" stroke-opacity="0.2" stroke-width="1"/><rect x="30.0" y="175.7" width="38.3" height="144.3" fill="#C69A46" fill-opacity="0.6"/><rect x="85.1" y="214.9" width="19.8" height="105.1" fill="#C69A46" fill-opacity="0.6"/><rect x="116.0" y="265.7" width="29.7" height="54.3" fill="#C69A46" fill-opacity="0.6"/><rect x="153.9" y="255.7" width="27.8" height="64.3" fill="#C69A46" fill-opacity="0.6"/><rect x="193.2" y="270.6" width="18.5" height="49.4" fill="#C69A46" fill-opacity="0.6"/><rect x="226.3" y="223.6" width="27.3" height="96.4" fill="#C69A46" fill-opacity="0.6"/><rect x="268.3" y="273.7" width="25.9" height="46.3" fill="#C69A46" fill-opacity="0.6"/><rect x="309.6" y="207.6" width="31.0" height="112.4" fill="#C69A46" fill-opacity="0.6"/><rect x="354.0" y="240.1" width="39.4" height="79.9" fill="#C69A46" fill-opacity="0.6"/><rect x="408.5" y="217.1" width="26.1" height="102.9" fill="#C69A46" fill-opacity="0.6"/><rect x="448.5" y="270.6" width="24.9" height="49.4" fill="#C69A46" fill-opacity="0.6"/><rect x="485.2" y="215.0" width="33.8" height="105.0" fill="#C69A46" fill-opacity="0.6"/><rect x="530.3" y="260.0" width="32.1" height="60.0" fill="#C69A46" fill-opacity="0.6"/><rect x="570.6" y="190.3" width="25.1" height="129.7" fill="#C69A46" fill-opacity="0.6"/><rect x="604.1" y="269.2" width="20.5" height="50.8" fill="#C69A46" fill-opacity="0.6"/><rect x="631.0" y="217.0" width="24.1" height="103.0" fill="#C69A46" fill-opacity="0.6"/><g stroke="#C69A46" stroke-width="2" fill="none" opacity="0.7"><path d="M 476.00000000000006 320.0 L 476.00000000000006 160.0"/><path d="M 518.0 320.0 L 518.0 120.0"/><path d="M 560.0 320.0 L 560.0 168.0"/></g>
  <g transform="translate(60,60)" opacity="0.55">
    <circle r="30" fill="none" stroke="#C69A46" stroke-width="1"/>
    <circle r="24" fill="none" stroke="#C69A46" stroke-width="0.6" stroke-dasharray="2 4"/>
    <path d="M0 -30 L0 30 M-30 0 L30 0" stroke="#C69A46" stroke-width="0.6"/>
    <path d="M0 -36 L-3 -28 L3 -28 Z" fill="#C1442E"/>
  </g>
  <path d="M -20 248.0 Q 210.0 200.0 385.00000000000006 264.0 T 720 220.00000000000003" fill="none" stroke="#C69A46" stroke-width="1.2" stroke-dasharray="1 7" opacity="0.35"/>
  <rect x="0.5" y="0.5" width="699" height="399" fill="none" stroke="#C69A46" stroke-opacity="0.25" stroke-width="1"/>
</svg>