<svg viewBox="0 0 700 400" xmlns="http://www.w3.org/2000/svg" role="img">

  <defs>
    <linearGradient id="skyo" x1="0" y1="0" x2="0" y2="1">
      <stop offset="0%" stop-color="#153B37"/>
      <stop offset="100%" stop-color="#0E2C2A"/>
    </linearGradient>
    <pattern id="grido" width="40" height="40" patternUnits="userSpaceOnUse">
      <path d="M40 0H0V40" fill="none" stroke="#F2E9D3" stroke-opacity="0.045" stroke-width="1"/>
    </pattern>
  </defs>
  <rect width="700" height="400" fill="url(#skyo)"/>
  <rect width="700" height="400" fill="url(#grido)"/>
  
  <path d="M -20.0 410 L -20.0 200.0 L 45.6 147.4 L 152.9 134.5 L 291.4 159.8 L 405.1 152.2 L 534.2 121.8 L 650.6 138.6 L 720.0 200.0 L 720.0 410 Z" fill="#1D4B45" fill-opacity="0.55" stroke="#C69A46" stroke-opacity="0.2" stroke-width="1"/><path d="M -20.0 410 L -20.0 256.0 L 63.6 128.5 L 249.0 145.0 L 441.9 148.0 L 620.6 125.6 L 720.0 256.0 L 720.0 410 Z" fill="#C69A46" fill-opacity="0.9" stroke="#C69A46" stroke-opacity="1" stroke-width="1.2"/><path d="M 114.1 167.0 L 130.1 145.0 L 146.1 167.0 L 138.1 160.0 L 130.1 169.0 L 122.1 160.0 Z" fill="#F2E9D3" fill-opacity="0.8"/><path d="M 227.7 170.0 L 243.7 148.0 L 259.7 170.0 L 251.7 163.0 L 243.7 172.0 L 235.7 163.0 Z" fill="#F2E9D3" fill-opacity="0.8"/><path d="M 444.6 138.4 L 460.6 116.4 L 476.6 138.4 L 468.6 131.4 L 460.6 140.4 L 452.6 131.4 Z" fill="#F2E9D3" fill-opacity="0.8"/><path d="M 557.9 191.5 L 573.9 169.5 L 589.9 191.5 L 581.9 184.5 L 573.9 193.5 L 565.9 184.5 Z" fill="#F2E9D3" fill-opacity="0.8"/><path d="M 657.7 158.7 L 673.7 136.7 L 689.7 158.7 L 681.7 151.7 L 673.7 160.7 L 665.7 151.7 Z" fill="#F2E9D3" fill-opacity="0.8"/><rect x="80" y="272.0" width="220" height="26" rx="4" fill="#C69A46" fill-opacity="0.9"/><rect x="100" y="278.0" width="16" height="10" fill="#0E2C2A" fill-opacity="0.5"/><rect x="130" y="278.0" width="16" height="10" fill="#0E2C2A" fill-opacity="0.5"/><rect x="160" y="278.0" width="16" height="10" fill="#0E2C2A" fill-opacity="0.5"/><rect x="190" y="278.0" width="16" height="10" fill="#0E2C2A" fill-opacity="0.5"/><rect x="220" y="278.0" width="16" height="10" fill="#0E2C2A" fill-opacity="0.5"/><rect x="250" y="278.0" width="16" height="10" fill="#0E2C2A" fill-opacity="0.5"/><rect x="280" y="278.0" width="16" height="10" fill="#0E2C2A" fill-opacity="0.5"/><line x1="0" y1="298.0" x2="700" y2="298.0" stroke="#C69A46" stroke-opacity="0.4" stroke-width="2"/>
  <g transform="translate(640,60)" opacity="0.55">
    <circle r="30" fill="none" stroke="#C69A46" stroke-width="1"/>
    <circle r="24" fill="none" stroke="#C69A46" stroke-width="0.6" stroke-dasharray="2 4"/>
    <path d="M0 -30 L0 30 M-30 0 L30 0" stroke="#C69A46" stroke-width="0.6"/>
    <path d="M0 -36 L-3 -28 L3 -28 Z" fill="#C1442E"/>
  </g>
  <path d="M -20 248.0 Q 210.0 200.0 385.00000000000006 264.0 T 720 220.00000000000003" fill="none" stroke="#C69A46" stroke-width="1.2" stroke-dasharray="1 7" opacity="0.35"/>
  <rect x="0.5" y="0.5" width="699" height="399" fill="none" stroke="#C69A46" stroke-opacity="0.25" stroke-width="1"/>
</svg>